<mxfile host="app.diagrams.net" agent="Mozilla/5.0 (Windows NT 10.0; Win64; x64) AppleWebKit/537.36 (KHTML, like Gecko) Chrome/124.0.0.0 Safari/537.36" version="24.9.1">
  <diagram name="Page-1" id="5f0bae14-7c28-e335-631c-24af17079c00">
    <mxGraphModel dx="1496" dy="624" grid="1" gridSize="10" guides="1" tooltips="1" connect="1" arrows="1" fold="1" page="1" pageScale="1" pageWidth="1100" pageHeight="850" background="none" math="0" shadow="0">
      <root>
        <mxCell id="0" />
        <mxCell id="1" parent="0" />
        <mxCell id="LZAPV1Nh_HWRiKfTWjE1-19" value="" style="rounded=0;whiteSpace=wrap;html=1;" vertex="1" parent="1">
          <mxGeometry x="5" width="1165" height="530" as="geometry" />
        </mxCell>
        <mxCell id="39150e848f15840c-1" value="Browser" style="verticalAlign=top;align=left;spacingTop=8;spacingLeft=2;spacingRight=12;shape=cube;size=10;direction=south;fontStyle=4;html=1;rounded=0;shadow=0;comic=0;labelBackgroundColor=none;strokeWidth=1;fontFamily=Verdana;fontSize=12" parent="1" vertex="1">
          <mxGeometry x="100" y="10" width="520" height="400" as="geometry" />
        </mxCell>
        <mxCell id="fAp_T25v9pfhfiaOYPLT-23" value="" style="html=1;dropTarget=0;whiteSpace=wrap;" parent="1" vertex="1">
          <mxGeometry x="110" y="50" width="460" height="340" as="geometry" />
        </mxCell>
        <mxCell id="fAp_T25v9pfhfiaOYPLT-24" value="" style="shape=module;jettyWidth=8;jettyHeight=4;" parent="fAp_T25v9pfhfiaOYPLT-23" vertex="1">
          <mxGeometry x="1" width="20" height="20" relative="1" as="geometry">
            <mxPoint x="-27" y="7" as="offset" />
          </mxGeometry>
        </mxCell>
        <mxCell id="fAp_T25v9pfhfiaOYPLT-3" value="Autenticação" style="html=1;dropTarget=0;whiteSpace=wrap;" parent="1" vertex="1">
          <mxGeometry x="190" y="130" width="140" height="70" as="geometry" />
        </mxCell>
        <mxCell id="fAp_T25v9pfhfiaOYPLT-4" value="" style="shape=module;jettyWidth=8;jettyHeight=4;" parent="fAp_T25v9pfhfiaOYPLT-3" vertex="1">
          <mxGeometry x="1" width="20" height="20" relative="1" as="geometry">
            <mxPoint x="-27" y="7" as="offset" />
          </mxGeometry>
        </mxCell>
        <mxCell id="fAp_T25v9pfhfiaOYPLT-5" value="Professor" style="html=1;dropTarget=0;whiteSpace=wrap;" parent="1" vertex="1">
          <mxGeometry x="190" y="220" width="140" height="70" as="geometry" />
        </mxCell>
        <mxCell id="fAp_T25v9pfhfiaOYPLT-6" value="" style="shape=module;jettyWidth=8;jettyHeight=4;" parent="fAp_T25v9pfhfiaOYPLT-5" vertex="1">
          <mxGeometry x="1" width="20" height="20" relative="1" as="geometry">
            <mxPoint x="-27" y="7" as="offset" />
          </mxGeometry>
        </mxCell>
        <mxCell id="fAp_T25v9pfhfiaOYPLT-7" value="Estudante" style="html=1;dropTarget=0;whiteSpace=wrap;" parent="1" vertex="1">
          <mxGeometry x="190" y="310" width="140" height="70" as="geometry" />
        </mxCell>
        <mxCell id="fAp_T25v9pfhfiaOYPLT-8" value="" style="shape=module;jettyWidth=8;jettyHeight=4;" parent="fAp_T25v9pfhfiaOYPLT-7" vertex="1">
          <mxGeometry x="1" width="20" height="20" relative="1" as="geometry">
            <mxPoint x="-27" y="7" as="offset" />
          </mxGeometry>
        </mxCell>
        <mxCell id="fAp_T25v9pfhfiaOYPLT-9" value="" style="ellipse;whiteSpace=wrap;html=1;aspect=fixed;" parent="1" vertex="1">
          <mxGeometry x="140" y="150" width="30" height="30" as="geometry" />
        </mxCell>
        <mxCell id="fAp_T25v9pfhfiaOYPLT-10" value="" style="endArrow=none;html=1;rounded=0;entryX=0;entryY=0.5;entryDx=0;entryDy=0;" parent="1" target="fAp_T25v9pfhfiaOYPLT-9" edge="1">
          <mxGeometry width="50" height="50" relative="1" as="geometry">
            <mxPoint x="60" y="165" as="sourcePoint" />
            <mxPoint x="130" y="155" as="targetPoint" />
          </mxGeometry>
        </mxCell>
        <mxCell id="fAp_T25v9pfhfiaOYPLT-11" value="" style="ellipse;whiteSpace=wrap;html=1;aspect=fixed;" parent="1" vertex="1">
          <mxGeometry x="30" y="150" width="30" height="30" as="geometry" />
        </mxCell>
        <mxCell id="fAp_T25v9pfhfiaOYPLT-12" value="" style="ellipse;whiteSpace=wrap;html=1;aspect=fixed;" parent="1" vertex="1">
          <mxGeometry x="140" y="240" width="30" height="30" as="geometry" />
        </mxCell>
        <mxCell id="fAp_T25v9pfhfiaOYPLT-13" value="" style="endArrow=none;html=1;rounded=0;entryX=0;entryY=0.5;entryDx=0;entryDy=0;" parent="1" target="fAp_T25v9pfhfiaOYPLT-12" edge="1">
          <mxGeometry width="50" height="50" relative="1" as="geometry">
            <mxPoint x="60" y="255" as="sourcePoint" />
            <mxPoint x="130" y="245" as="targetPoint" />
          </mxGeometry>
        </mxCell>
        <mxCell id="fAp_T25v9pfhfiaOYPLT-14" value="" style="ellipse;whiteSpace=wrap;html=1;aspect=fixed;" parent="1" vertex="1">
          <mxGeometry x="30" y="240" width="30" height="30" as="geometry" />
        </mxCell>
        <mxCell id="fAp_T25v9pfhfiaOYPLT-15" value="" style="ellipse;whiteSpace=wrap;html=1;aspect=fixed;" parent="1" vertex="1">
          <mxGeometry x="140" y="327" width="30" height="30" as="geometry" />
        </mxCell>
        <mxCell id="fAp_T25v9pfhfiaOYPLT-16" value="" style="endArrow=none;html=1;rounded=0;entryX=0;entryY=0.5;entryDx=0;entryDy=0;" parent="1" target="fAp_T25v9pfhfiaOYPLT-15" edge="1">
          <mxGeometry width="50" height="50" relative="1" as="geometry">
            <mxPoint x="60" y="342" as="sourcePoint" />
            <mxPoint x="130" y="332" as="targetPoint" />
          </mxGeometry>
        </mxCell>
        <mxCell id="fAp_T25v9pfhfiaOYPLT-17" value="" style="ellipse;whiteSpace=wrap;html=1;aspect=fixed;" parent="1" vertex="1">
          <mxGeometry x="30" y="327" width="30" height="30" as="geometry" />
        </mxCell>
        <mxCell id="fAp_T25v9pfhfiaOYPLT-18" value="" style="endArrow=none;html=1;rounded=0;entryX=0;entryY=0.5;entryDx=0;entryDy=0;" parent="1" target="fAp_T25v9pfhfiaOYPLT-3" edge="1">
          <mxGeometry width="50" height="50" relative="1" as="geometry">
            <mxPoint x="170" y="165" as="sourcePoint" />
            <mxPoint x="150" y="175" as="targetPoint" />
          </mxGeometry>
        </mxCell>
        <mxCell id="fAp_T25v9pfhfiaOYPLT-19" value="" style="endArrow=none;html=1;rounded=0;entryX=0;entryY=0.5;entryDx=0;entryDy=0;" parent="1" edge="1">
          <mxGeometry width="50" height="50" relative="1" as="geometry">
            <mxPoint x="170" y="256" as="sourcePoint" />
            <mxPoint x="190" y="256" as="targetPoint" />
          </mxGeometry>
        </mxCell>
        <mxCell id="fAp_T25v9pfhfiaOYPLT-20" value="" style="endArrow=none;html=1;rounded=0;entryX=0;entryY=0.5;entryDx=0;entryDy=0;" parent="1" edge="1">
          <mxGeometry width="50" height="50" relative="1" as="geometry">
            <mxPoint x="170" y="343" as="sourcePoint" />
            <mxPoint x="190" y="343" as="targetPoint" />
          </mxGeometry>
        </mxCell>
        <mxCell id="fAp_T25v9pfhfiaOYPLT-21" value="Handler" style="html=1;dropTarget=0;whiteSpace=wrap;" parent="1" vertex="1">
          <mxGeometry x="390" y="100" width="120" height="280" as="geometry" />
        </mxCell>
        <mxCell id="fAp_T25v9pfhfiaOYPLT-22" value="" style="shape=module;jettyWidth=8;jettyHeight=4;" parent="fAp_T25v9pfhfiaOYPLT-21" vertex="1">
          <mxGeometry x="1" width="20" height="20" relative="1" as="geometry">
            <mxPoint x="-27" y="7" as="offset" />
          </mxGeometry>
        </mxCell>
        <mxCell id="fAp_T25v9pfhfiaOYPLT-25" value="&amp;lt;&amp;lt;Subsistema&amp;gt;&amp;gt; Frontend" style="text;html=1;align=center;verticalAlign=middle;whiteSpace=wrap;rounded=0;" parent="1" vertex="1">
          <mxGeometry x="230" y="50" width="180" height="30" as="geometry" />
        </mxCell>
        <mxCell id="fAp_T25v9pfhfiaOYPLT-28" value="" style="shape=requiredInterface;html=1;verticalLabelPosition=bottom;sketch=0;rotation=-180;" parent="1" vertex="1">
          <mxGeometry x="540" y="155" width="10" height="20" as="geometry" />
        </mxCell>
        <mxCell id="fAp_T25v9pfhfiaOYPLT-29" value="" style="shape=requiredInterface;html=1;verticalLabelPosition=bottom;sketch=0;rotation=-180;" parent="1" vertex="1">
          <mxGeometry x="540" y="245" width="10" height="20" as="geometry" />
        </mxCell>
        <mxCell id="fAp_T25v9pfhfiaOYPLT-30" value="" style="shape=requiredInterface;html=1;verticalLabelPosition=bottom;sketch=0;rotation=-180;" parent="1" vertex="1">
          <mxGeometry x="540" y="332" width="10" height="20" as="geometry" />
        </mxCell>
        <mxCell id="fAp_T25v9pfhfiaOYPLT-31" value="" style="line;strokeWidth=1;fillColor=none;align=left;verticalAlign=middle;spacingTop=-1;spacingLeft=3;spacingRight=3;rotatable=0;labelPosition=right;points=[];portConstraint=eastwest;strokeColor=inherit;" parent="1" vertex="1">
          <mxGeometry x="510" y="161" width="30" height="8" as="geometry" />
        </mxCell>
        <mxCell id="fAp_T25v9pfhfiaOYPLT-32" value="" style="line;strokeWidth=1;fillColor=none;align=left;verticalAlign=middle;spacingTop=-1;spacingLeft=3;spacingRight=3;rotatable=0;labelPosition=right;points=[];portConstraint=eastwest;strokeColor=inherit;" parent="1" vertex="1">
          <mxGeometry x="510" y="252" width="30" height="8" as="geometry" />
        </mxCell>
        <mxCell id="fAp_T25v9pfhfiaOYPLT-33" value="" style="line;strokeWidth=1;fillColor=none;align=left;verticalAlign=middle;spacingTop=-1;spacingLeft=3;spacingRight=3;rotatable=0;labelPosition=right;points=[];portConstraint=eastwest;strokeColor=inherit;" parent="1" vertex="1">
          <mxGeometry x="510" y="339" width="30" height="8" as="geometry" />
        </mxCell>
        <mxCell id="fAp_T25v9pfhfiaOYPLT-34" value="" style="shape=providedRequiredInterface;html=1;verticalLabelPosition=bottom;sketch=0;rotation=-180;" parent="1" vertex="1">
          <mxGeometry x="350" y="155" width="20" height="20" as="geometry" />
        </mxCell>
        <mxCell id="fAp_T25v9pfhfiaOYPLT-35" value="" style="shape=providedRequiredInterface;html=1;verticalLabelPosition=bottom;sketch=0;rotation=-180;" parent="1" vertex="1">
          <mxGeometry x="350" y="245" width="20" height="20" as="geometry" />
        </mxCell>
        <mxCell id="fAp_T25v9pfhfiaOYPLT-36" value="" style="shape=providedRequiredInterface;html=1;verticalLabelPosition=bottom;sketch=0;rotation=-180;" parent="1" vertex="1">
          <mxGeometry x="350" y="332" width="20" height="20" as="geometry" />
        </mxCell>
        <mxCell id="fAp_T25v9pfhfiaOYPLT-37" value="" style="line;strokeWidth=1;fillColor=none;align=left;verticalAlign=middle;spacingTop=-1;spacingLeft=3;spacingRight=3;rotatable=0;labelPosition=right;points=[];portConstraint=eastwest;strokeColor=inherit;" parent="1" vertex="1">
          <mxGeometry x="330" y="161" width="20" height="8" as="geometry" />
        </mxCell>
        <mxCell id="fAp_T25v9pfhfiaOYPLT-38" value="" style="line;strokeWidth=1;fillColor=none;align=left;verticalAlign=middle;spacingTop=-1;spacingLeft=3;spacingRight=3;rotatable=0;labelPosition=right;points=[];portConstraint=eastwest;strokeColor=inherit;" parent="1" vertex="1">
          <mxGeometry x="330" y="251" width="20" height="8" as="geometry" />
        </mxCell>
        <mxCell id="fAp_T25v9pfhfiaOYPLT-39" value="" style="line;strokeWidth=1;fillColor=none;align=left;verticalAlign=middle;spacingTop=-1;spacingLeft=3;spacingRight=3;rotatable=0;labelPosition=right;points=[];portConstraint=eastwest;strokeColor=inherit;" parent="1" vertex="1">
          <mxGeometry x="330" y="338" width="20" height="8" as="geometry" />
        </mxCell>
        <mxCell id="fAp_T25v9pfhfiaOYPLT-40" value="" style="line;strokeWidth=1;fillColor=none;align=left;verticalAlign=middle;spacingTop=-1;spacingLeft=3;spacingRight=3;rotatable=0;labelPosition=right;points=[];portConstraint=eastwest;strokeColor=inherit;" parent="1" vertex="1">
          <mxGeometry x="370" y="161" width="20" height="8" as="geometry" />
        </mxCell>
        <mxCell id="fAp_T25v9pfhfiaOYPLT-41" value="" style="line;strokeWidth=1;fillColor=none;align=left;verticalAlign=middle;spacingTop=-1;spacingLeft=3;spacingRight=3;rotatable=0;labelPosition=right;points=[];portConstraint=eastwest;strokeColor=inherit;" parent="1" vertex="1">
          <mxGeometry x="370" y="251" width="20" height="8" as="geometry" />
        </mxCell>
        <mxCell id="fAp_T25v9pfhfiaOYPLT-42" value="" style="line;strokeWidth=1;fillColor=none;align=left;verticalAlign=middle;spacingTop=-1;spacingLeft=3;spacingRight=3;rotatable=0;labelPosition=right;points=[];portConstraint=eastwest;strokeColor=inherit;" parent="1" vertex="1">
          <mxGeometry x="370" y="338" width="20" height="8" as="geometry" />
        </mxCell>
        <mxCell id="fAp_T25v9pfhfiaOYPLT-43" value="" style="shape=requiredInterface;html=1;verticalLabelPosition=bottom;sketch=0;rotation=-180;" parent="1" vertex="1">
          <mxGeometry x="585" y="155" width="10" height="20" as="geometry" />
        </mxCell>
        <mxCell id="fAp_T25v9pfhfiaOYPLT-44" value="" style="shape=requiredInterface;html=1;verticalLabelPosition=bottom;sketch=0;rotation=-180;" parent="1" vertex="1">
          <mxGeometry x="585" y="245" width="10" height="20" as="geometry" />
        </mxCell>
        <mxCell id="fAp_T25v9pfhfiaOYPLT-45" value="" style="shape=requiredInterface;html=1;verticalLabelPosition=bottom;sketch=0;rotation=-180;" parent="1" vertex="1">
          <mxGeometry x="585" y="332" width="10" height="20" as="geometry" />
        </mxCell>
        <mxCell id="fAp_T25v9pfhfiaOYPLT-46" value="" style="line;strokeWidth=1;fillColor=none;align=left;verticalAlign=middle;spacingTop=-1;spacingLeft=3;spacingRight=3;rotatable=0;labelPosition=right;points=[];portConstraint=eastwest;strokeColor=inherit;" parent="1" vertex="1">
          <mxGeometry x="555" y="161" width="30" height="8" as="geometry" />
        </mxCell>
        <mxCell id="fAp_T25v9pfhfiaOYPLT-47" value="" style="line;strokeWidth=1;fillColor=none;align=left;verticalAlign=middle;spacingTop=-1;spacingLeft=3;spacingRight=3;rotatable=0;labelPosition=right;points=[];portConstraint=eastwest;strokeColor=inherit;" parent="1" vertex="1">
          <mxGeometry x="555" y="252" width="30" height="8" as="geometry" />
        </mxCell>
        <mxCell id="fAp_T25v9pfhfiaOYPLT-48" value="" style="line;strokeWidth=1;fillColor=none;align=left;verticalAlign=middle;spacingTop=-1;spacingLeft=3;spacingRight=3;rotatable=0;labelPosition=right;points=[];portConstraint=eastwest;strokeColor=inherit;" parent="1" vertex="1">
          <mxGeometry x="555" y="339" width="30" height="8" as="geometry" />
        </mxCell>
        <mxCell id="fAp_T25v9pfhfiaOYPLT-49" value="Login" style="text;align=center;fontStyle=1;verticalAlign=middle;spacingLeft=3;spacingRight=3;strokeColor=none;rotatable=0;points=[[0,0.5],[1,0.5]];portConstraint=eastwest;html=1;" parent="1" vertex="1">
          <mxGeometry x="5" y="100" width="80" height="26" as="geometry" />
        </mxCell>
        <mxCell id="fAp_T25v9pfhfiaOYPLT-50" value="Professor" style="text;align=center;fontStyle=1;verticalAlign=middle;spacingLeft=3;spacingRight=3;strokeColor=none;rotatable=0;points=[[0,0.5],[1,0.5]];portConstraint=eastwest;html=1;" parent="1" vertex="1">
          <mxGeometry x="5" y="214" width="80" height="26" as="geometry" />
        </mxCell>
        <mxCell id="fAp_T25v9pfhfiaOYPLT-51" value="Estudante&lt;span style=&quot;color: rgba(0, 0, 0, 0); font-family: monospace; font-size: 0px; font-weight: 400; text-align: start;&quot;&gt;%3CmxGraphModel%3E%3Croot%3E%3CmxCell%20id%3D%220%22%2F%3E%3CmxCell%20id%3D%221%22%20parent%3D%220%22%2F%3E%3CmxCell%20id%3D%222%22%20value%3D%22Login%22%20style%3D%22text%3Balign%3Dcenter%3BfontStyle%3D1%3BverticalAlign%3Dmiddle%3BspacingLeft%3D3%3BspacingRight%3D3%3BstrokeColor%3Dnone%3Brotatable%3D0%3Bpoints%3D%5B%5B0%2C0.5%5D%2C%5B1%2C0.5%5D%5D%3BportConstraint%3Deastwest%3Bhtml%3D1%3B%22%20vertex%3D%221%22%20parent%3D%221%22%3E%3CmxGeometry%20x%3D%225%22%20y%3D%22100%22%20width%3D%2280%22%20height%3D%2226%22%20as%3D%22geometry%22%2F%3E%3C%2FmxCell%3E%3C%2Froot%3E%3C%2FmxGraphModel%3E&lt;/span&gt;" style="text;align=center;fontStyle=1;verticalAlign=middle;spacingLeft=3;spacingRight=3;strokeColor=none;rotatable=0;points=[[0,0.5],[1,0.5]];portConstraint=eastwest;html=1;" parent="1" vertex="1">
          <mxGeometry x="5" y="301" width="80" height="26" as="geometry" />
        </mxCell>
        <mxCell id="fAp_T25v9pfhfiaOYPLT-52" value="Service web" style="verticalAlign=top;align=left;spacingTop=8;spacingLeft=2;spacingRight=12;shape=cube;size=10;direction=south;fontStyle=4;html=1;rounded=0;shadow=0;comic=0;labelBackgroundColor=none;strokeWidth=1;fontFamily=Verdana;fontSize=12" parent="1" vertex="1">
          <mxGeometry x="840" y="10" width="320" height="490" as="geometry" />
        </mxCell>
        <mxCell id="fAp_T25v9pfhfiaOYPLT-53" value="" style="html=1;dropTarget=0;whiteSpace=wrap;" parent="1" vertex="1">
          <mxGeometry x="860" y="57" width="250" height="423" as="geometry" />
        </mxCell>
        <mxCell id="fAp_T25v9pfhfiaOYPLT-54" value="" style="shape=module;jettyWidth=8;jettyHeight=4;" parent="fAp_T25v9pfhfiaOYPLT-53" vertex="1">
          <mxGeometry x="1" width="20" height="20" relative="1" as="geometry">
            <mxPoint x="-27" y="7" as="offset" />
          </mxGeometry>
        </mxCell>
        <mxCell id="fAp_T25v9pfhfiaOYPLT-56" value="Autenticação" style="html=1;dropTarget=0;whiteSpace=wrap;" parent="1" vertex="1">
          <mxGeometry x="910" y="78" width="140" height="70" as="geometry" />
        </mxCell>
        <mxCell id="fAp_T25v9pfhfiaOYPLT-57" value="" style="shape=module;jettyWidth=8;jettyHeight=4;" parent="fAp_T25v9pfhfiaOYPLT-56" vertex="1">
          <mxGeometry x="1" width="20" height="20" relative="1" as="geometry">
            <mxPoint x="-27" y="7" as="offset" />
          </mxGeometry>
        </mxCell>
        <mxCell id="fAp_T25v9pfhfiaOYPLT-58" value="Turma" style="html=1;dropTarget=0;whiteSpace=wrap;" parent="1" vertex="1">
          <mxGeometry x="910" y="215" width="140" height="70" as="geometry" />
        </mxCell>
        <mxCell id="fAp_T25v9pfhfiaOYPLT-59" value="" style="shape=module;jettyWidth=8;jettyHeight=4;" parent="fAp_T25v9pfhfiaOYPLT-58" vertex="1">
          <mxGeometry x="1" width="20" height="20" relative="1" as="geometry">
            <mxPoint x="-27" y="7" as="offset" />
          </mxGeometry>
        </mxCell>
        <mxCell id="fAp_T25v9pfhfiaOYPLT-65" value="" style="shape=providedRequiredInterface;html=1;verticalLabelPosition=bottom;sketch=0;rotation=90;" parent="1" vertex="1">
          <mxGeometry x="966" y="173" width="20" height="20" as="geometry" />
        </mxCell>
        <mxCell id="LZAPV1Nh_HWRiKfTWjE1-1" value="Atividade" style="html=1;dropTarget=0;whiteSpace=wrap;" vertex="1" parent="1">
          <mxGeometry x="910" y="355" width="140" height="70" as="geometry" />
        </mxCell>
        <mxCell id="LZAPV1Nh_HWRiKfTWjE1-2" value="" style="shape=module;jettyWidth=8;jettyHeight=4;" vertex="1" parent="LZAPV1Nh_HWRiKfTWjE1-1">
          <mxGeometry x="1" width="20" height="20" relative="1" as="geometry">
            <mxPoint x="-27" y="7" as="offset" />
          </mxGeometry>
        </mxCell>
        <mxCell id="LZAPV1Nh_HWRiKfTWjE1-3" value="" style="endArrow=none;html=1;rounded=0;entryX=1;entryY=0.5;entryDx=0;entryDy=0;entryPerimeter=0;exitX=0.472;exitY=-0.003;exitDx=0;exitDy=0;exitPerimeter=0;" edge="1" parent="1" source="fAp_T25v9pfhfiaOYPLT-58" target="fAp_T25v9pfhfiaOYPLT-65">
          <mxGeometry width="50" height="50" relative="1" as="geometry">
            <mxPoint x="950" y="300" as="sourcePoint" />
            <mxPoint x="1000" y="250" as="targetPoint" />
          </mxGeometry>
        </mxCell>
        <mxCell id="LZAPV1Nh_HWRiKfTWjE1-4" value="" style="endArrow=none;html=1;rounded=0;entryX=0.471;entryY=0.964;entryDx=0;entryDy=0;entryPerimeter=0;exitX=0;exitY=0.5;exitDx=0;exitDy=0;exitPerimeter=0;" edge="1" parent="1" source="fAp_T25v9pfhfiaOYPLT-65" target="fAp_T25v9pfhfiaOYPLT-56">
          <mxGeometry width="50" height="50" relative="1" as="geometry">
            <mxPoint x="960" y="290" as="sourcePoint" />
            <mxPoint x="1010" y="240" as="targetPoint" />
          </mxGeometry>
        </mxCell>
        <mxCell id="LZAPV1Nh_HWRiKfTWjE1-5" value="" style="shape=providedRequiredInterface;html=1;verticalLabelPosition=bottom;sketch=0;rotation=90;" vertex="1" parent="1">
          <mxGeometry x="970" y="313.5" width="20" height="20" as="geometry" />
        </mxCell>
        <mxCell id="LZAPV1Nh_HWRiKfTWjE1-7" value="" style="endArrow=none;html=1;rounded=0;entryX=0.5;entryY=1;entryDx=0;entryDy=0;exitX=0;exitY=0.5;exitDx=0;exitDy=0;exitPerimeter=0;" edge="1" parent="1">
          <mxGeometry width="50" height="50" relative="1" as="geometry">
            <mxPoint x="980" y="312.5" as="sourcePoint" />
            <mxPoint x="980" y="283" as="targetPoint" />
          </mxGeometry>
        </mxCell>
        <mxCell id="LZAPV1Nh_HWRiKfTWjE1-8" value="" style="endArrow=none;html=1;rounded=0;exitX=0.5;exitY=0;exitDx=0;exitDy=0;entryX=1;entryY=0.5;entryDx=0;entryDy=0;entryPerimeter=0;" edge="1" parent="1" source="LZAPV1Nh_HWRiKfTWjE1-1" target="LZAPV1Nh_HWRiKfTWjE1-5">
          <mxGeometry width="50" height="50" relative="1" as="geometry">
            <mxPoint x="960" y="340" as="sourcePoint" />
            <mxPoint x="1010" y="290" as="targetPoint" />
          </mxGeometry>
        </mxCell>
        <mxCell id="LZAPV1Nh_HWRiKfTWjE1-9" value="&amp;lt;&amp;lt;Subsistema&amp;gt;&amp;gt; Backend" style="text;html=1;align=center;verticalAlign=middle;whiteSpace=wrap;rounded=0;" vertex="1" parent="1">
          <mxGeometry x="849" y="54" width="180" height="30" as="geometry" />
        </mxCell>
        <mxCell id="LZAPV1Nh_HWRiKfTWjE1-10" value="" style="ellipse;whiteSpace=wrap;html=1;aspect=fixed;" vertex="1" parent="1">
          <mxGeometry x="800" y="380" width="20" height="20" as="geometry" />
        </mxCell>
        <mxCell id="LZAPV1Nh_HWRiKfTWjE1-11" value="" style="endArrow=none;html=1;rounded=0;entryX=0;entryY=0.5;entryDx=0;entryDy=0;exitX=1;exitY=0.5;exitDx=0;exitDy=0;" edge="1" parent="1" source="LZAPV1Nh_HWRiKfTWjE1-10" target="LZAPV1Nh_HWRiKfTWjE1-1">
          <mxGeometry width="50" height="50" relative="1" as="geometry">
            <mxPoint x="750" y="380" as="sourcePoint" />
            <mxPoint x="800" y="330" as="targetPoint" />
          </mxGeometry>
        </mxCell>
        <mxCell id="LZAPV1Nh_HWRiKfTWjE1-12" value="" style="ellipse;whiteSpace=wrap;html=1;aspect=fixed;" vertex="1" parent="1">
          <mxGeometry x="800" y="240" width="20" height="20" as="geometry" />
        </mxCell>
        <mxCell id="LZAPV1Nh_HWRiKfTWjE1-13" value="" style="endArrow=none;html=1;rounded=0;entryX=0;entryY=0.5;entryDx=0;entryDy=0;exitX=1;exitY=0.5;exitDx=0;exitDy=0;" edge="1" parent="1" source="LZAPV1Nh_HWRiKfTWjE1-12">
          <mxGeometry width="50" height="50" relative="1" as="geometry">
            <mxPoint x="750" y="240" as="sourcePoint" />
            <mxPoint x="910" y="250" as="targetPoint" />
          </mxGeometry>
        </mxCell>
        <mxCell id="LZAPV1Nh_HWRiKfTWjE1-14" value="" style="ellipse;whiteSpace=wrap;html=1;aspect=fixed;" vertex="1" parent="1">
          <mxGeometry x="800" y="103" width="20" height="20" as="geometry" />
        </mxCell>
        <mxCell id="LZAPV1Nh_HWRiKfTWjE1-15" value="" style="endArrow=none;html=1;rounded=0;entryX=0;entryY=0.5;entryDx=0;entryDy=0;exitX=1;exitY=0.5;exitDx=0;exitDy=0;" edge="1" parent="1" source="LZAPV1Nh_HWRiKfTWjE1-14">
          <mxGeometry width="50" height="50" relative="1" as="geometry">
            <mxPoint x="750" y="103" as="sourcePoint" />
            <mxPoint x="910" y="113" as="targetPoint" />
          </mxGeometry>
        </mxCell>
        <mxCell id="LZAPV1Nh_HWRiKfTWjE1-16" value="" style="html=1;verticalAlign=bottom;endArrow=open;dashed=1;endSize=8;curved=0;rounded=0;exitX=0;exitY=0.5;exitDx=0;exitDy=0;exitPerimeter=0;entryX=0;entryY=0.5;entryDx=0;entryDy=0;" edge="1" parent="1" source="fAp_T25v9pfhfiaOYPLT-44" target="LZAPV1Nh_HWRiKfTWjE1-12">
          <mxGeometry relative="1" as="geometry">
            <mxPoint x="820" y="260" as="sourcePoint" />
            <mxPoint x="740" y="260" as="targetPoint" />
          </mxGeometry>
        </mxCell>
        <mxCell id="LZAPV1Nh_HWRiKfTWjE1-17" value="" style="html=1;verticalAlign=bottom;endArrow=open;dashed=1;endSize=8;curved=0;rounded=0;exitX=0;exitY=0.5;exitDx=0;exitDy=0;exitPerimeter=0;entryX=0;entryY=0.5;entryDx=0;entryDy=0;" edge="1" parent="1" source="fAp_T25v9pfhfiaOYPLT-43" target="LZAPV1Nh_HWRiKfTWjE1-14">
          <mxGeometry relative="1" as="geometry">
            <mxPoint x="605" y="265" as="sourcePoint" />
            <mxPoint x="810" y="260" as="targetPoint" />
            <Array as="points">
              <mxPoint x="700" y="165" />
              <mxPoint x="700" y="113" />
            </Array>
          </mxGeometry>
        </mxCell>
        <mxCell id="LZAPV1Nh_HWRiKfTWjE1-18" value="" style="html=1;verticalAlign=bottom;endArrow=open;dashed=1;endSize=8;curved=0;rounded=0;exitX=0;exitY=0.5;exitDx=0;exitDy=0;exitPerimeter=0;entryX=0;entryY=0.5;entryDx=0;entryDy=0;" edge="1" parent="1" source="fAp_T25v9pfhfiaOYPLT-45" target="LZAPV1Nh_HWRiKfTWjE1-10">
          <mxGeometry relative="1" as="geometry">
            <mxPoint x="605" y="265" as="sourcePoint" />
            <mxPoint x="810" y="260" as="targetPoint" />
            <Array as="points">
              <mxPoint x="700" y="342" />
              <mxPoint x="700" y="390" />
            </Array>
          </mxGeometry>
        </mxCell>
      </root>
    </mxGraphModel>
  </diagram>
</mxfile>
